<svg width="145" height="115" viewBox="0 0 145 115" fill="none" xmlns="http://www.w3.org/2000/svg">
<path fill-rule="evenodd" clip-rule="evenodd" d="M79.54 0C50.789 3.4332 28.5 27.8676 28.5 57.5C28.5 87.1325 50.789 111.567 79.54 115V113.993C51.3416 110.565 29.5 86.5783 29.5 57.5C29.5 28.4217 51.3416 4.43485 79.54 1.00732V0ZM93.46 113.993C121.658 110.565 143.5 86.5783 143.5 57.5C143.5 28.4218 121.658 4.4349 93.46 1.00733V9.0673e-06C122.211 3.43325 144.5 27.8676 144.5 57.5C144.5 87.1324 122.211 111.567 93.46 115V113.993Z" fill="#EB5A35"/>
<path d="M86.18 53V43.228H87.356V51.978H91.99V53H86.18ZM97.2205 53.168C96.6979 53.168 96.2265 53.0793 95.8065 52.902C95.3959 52.7247 95.0412 52.4727 94.7425 52.146C94.4532 51.81 94.2292 51.4133 94.0705 50.956C93.9119 50.4893 93.8325 49.9713 93.8325 49.402C93.8325 48.8233 93.9119 48.3007 94.0705 47.834C94.2385 47.3673 94.4672 46.9707 94.7565 46.644C95.0459 46.308 95.3912 46.0513 95.7925 45.874C96.2032 45.6967 96.6559 45.608 97.1505 45.608C97.6359 45.608 98.0745 45.6967 98.4665 45.874C98.8679 46.0513 99.2085 46.2987 99.4885 46.616C99.7685 46.924 99.9832 47.2927 100.133 47.722C100.282 48.1513 100.357 48.6227 100.357 49.136V49.668H95.0085V50.004C95.0085 50.3213 95.0599 50.6153 95.1625 50.886C95.2652 51.1567 95.4099 51.39 95.5965 51.586C95.7925 51.782 96.0259 51.936 96.2965 52.048C96.5765 52.1507 96.8845 52.202 97.2205 52.202C97.7059 52.202 98.1259 52.09 98.4805 51.866C98.8352 51.642 99.1059 51.334 99.2925 50.942L100.119 51.502C99.9039 51.9873 99.5445 52.3887 99.0405 52.706C98.5459 53.014 97.9392 53.168 97.2205 53.168ZM97.1505 46.532C96.8425 46.532 96.5579 46.588 96.2965 46.7C96.0352 46.812 95.8065 46.966 95.6105 47.162C95.4239 47.358 95.2745 47.5913 95.1625 47.862C95.0599 48.1233 95.0085 48.4127 95.0085 48.73V48.828H99.1525V48.674C99.1525 48.3567 99.1012 48.0673 98.9985 47.806C98.9052 47.5447 98.7699 47.3207 98.5925 47.134C98.4245 46.938 98.2145 46.7887 97.9625 46.686C97.7199 46.5833 97.4492 46.532 97.1505 46.532ZM108.219 53C107.78 53 107.468 52.888 107.281 52.664C107.094 52.44 106.978 52.16 106.931 51.824H106.861C106.702 52.244 106.446 52.5753 106.091 52.818C105.746 53.0513 105.279 53.168 104.691 53.168C103.935 53.168 103.333 52.972 102.885 52.58C102.437 52.188 102.213 51.6513 102.213 50.97C102.213 50.298 102.456 49.78 102.941 49.416C103.436 49.052 104.229 48.87 105.321 48.87H106.861V48.156C106.861 47.624 106.712 47.2273 106.413 46.966C106.114 46.6953 105.69 46.56 105.139 46.56C104.654 46.56 104.257 46.658 103.949 46.854C103.641 47.0407 103.394 47.2973 103.207 47.624L102.451 47.064C102.544 46.8773 102.67 46.6953 102.829 46.518C102.988 46.3407 103.184 46.1867 103.417 46.056C103.65 45.916 103.916 45.8087 104.215 45.734C104.514 45.65 104.845 45.608 105.209 45.608C106.058 45.608 106.73 45.8227 107.225 46.252C107.729 46.6813 107.981 47.2787 107.981 48.044V52.02H108.989V53H108.219ZM104.887 52.23C105.176 52.23 105.438 52.1973 105.671 52.132C105.914 52.0573 106.124 51.964 106.301 51.852C106.478 51.7307 106.614 51.5907 106.707 51.432C106.81 51.264 106.861 51.0867 106.861 50.9V49.71H105.321C104.649 49.71 104.159 49.8033 103.851 49.99C103.543 50.1767 103.389 50.4473 103.389 50.802V51.096C103.389 51.4693 103.52 51.754 103.781 51.95C104.052 52.1367 104.42 52.23 104.887 52.23ZM110.762 52.048H112.876V46.728H110.762V45.776H113.996V47.596H114.066C114.215 47.0267 114.495 46.5833 114.906 46.266C115.326 45.9393 115.858 45.776 116.502 45.776H117.51V46.896H116.152C115.508 46.896 114.985 47.0827 114.584 47.456C114.192 47.8293 113.996 48.3193 113.996 48.926V52.048H116.796V53H110.762V52.048ZM119.45 53V45.776H120.57V46.952H120.626C120.701 46.7747 120.794 46.6067 120.906 46.448C121.018 46.28 121.153 46.1353 121.312 46.014C121.48 45.8927 121.676 45.7947 121.9 45.72C122.124 45.6453 122.385 45.608 122.684 45.608C123.44 45.608 124.047 45.8507 124.504 46.336C124.961 46.812 125.19 47.4887 125.19 48.366V53H124.07V48.562C124.07 47.8993 123.925 47.4093 123.636 47.092C123.347 46.7653 122.922 46.602 122.362 46.602C122.138 46.602 121.919 46.63 121.704 46.686C121.489 46.742 121.298 46.826 121.13 46.938C120.962 47.05 120.827 47.1947 120.724 47.372C120.621 47.5493 120.57 47.7547 120.57 47.988V53H119.45ZM90.87 66.1V63.006H90.758L88.7 68.032L86.642 63.006H86.53V66.1V71H85.452V61.228H86.964L88.686 65.54H88.77L90.492 61.228H91.948V71H90.87V66.1ZM97.0945 71.168C96.5905 71.168 96.1332 71.0793 95.7225 70.902C95.3212 70.7247 94.9759 70.4727 94.6865 70.146C94.4065 69.81 94.1919 69.4133 94.0425 68.956C93.8932 68.4893 93.8185 67.9667 93.8185 67.388C93.8185 66.8187 93.8932 66.3007 94.0425 65.834C94.1919 65.3673 94.4065 64.9707 94.6865 64.644C94.9759 64.308 95.3212 64.0513 95.7225 63.874C96.1332 63.6967 96.5905 63.608 97.0945 63.608C97.5985 63.608 98.0512 63.6967 98.4525 63.874C98.8632 64.0513 99.2085 64.308 99.4885 64.644C99.7779 64.9707 99.9972 65.3673 100.147 65.834C100.296 66.3007 100.371 66.8187 100.371 67.388C100.371 67.9667 100.296 68.4893 100.147 68.956C99.9972 69.4133 99.7779 69.81 99.4885 70.146C99.2085 70.4727 98.8632 70.7247 98.4525 70.902C98.0512 71.0793 97.5985 71.168 97.0945 71.168ZM97.0945 70.202C97.7199 70.202 98.2239 70.0153 98.6065 69.642C98.9892 69.2687 99.1805 68.69 99.1805 67.906V66.87C99.1805 66.086 98.9892 65.5073 98.6065 65.134C98.2239 64.7607 97.7199 64.574 97.0945 64.574C96.4692 64.574 95.9652 64.7607 95.5825 65.134C95.1999 65.5073 95.0085 66.086 95.0085 66.87V67.906C95.0085 68.69 95.1999 69.2687 95.5825 69.642C95.9652 70.0153 96.4692 70.202 97.0945 70.202ZM102.367 70.048H104.481V64.728H102.367V63.776H105.601V65.596H105.671C105.82 65.0267 106.1 64.5833 106.511 64.266C106.931 63.9393 107.463 63.776 108.107 63.776H109.115V64.896H107.757C107.113 64.896 106.59 65.0827 106.189 65.456C105.797 65.8293 105.601 66.3193 105.601 66.926V70.048H108.401V71H102.367V70.048ZM114.01 71.168C113.487 71.168 113.016 71.0793 112.596 70.902C112.185 70.7247 111.83 70.4727 111.532 70.146C111.242 69.81 111.018 69.4133 110.86 68.956C110.701 68.4893 110.622 67.9713 110.622 67.402C110.622 66.8233 110.701 66.3007 110.86 65.834C111.028 65.3673 111.256 64.9707 111.546 64.644C111.835 64.308 112.18 64.0513 112.582 63.874C112.992 63.6967 113.445 63.608 113.94 63.608C114.425 63.608 114.864 63.6967 115.256 63.874C115.657 64.0513 115.998 64.2987 116.278 64.616C116.558 64.924 116.772 65.2927 116.922 65.722C117.071 66.1513 117.146 66.6227 117.146 67.136V67.668H111.798V68.004C111.798 68.3213 111.849 68.6153 111.952 68.886C112.054 69.1567 112.199 69.39 112.386 69.586C112.582 69.782 112.815 69.936 113.086 70.048C113.366 70.1507 113.674 70.202 114.01 70.202C114.495 70.202 114.915 70.09 115.27 69.866C115.624 69.642 115.895 69.334 116.082 68.942L116.908 69.502C116.693 69.9873 116.334 70.3887 115.83 70.706C115.335 71.014 114.728 71.168 114.01 71.168ZM113.94 64.532C113.632 64.532 113.347 64.588 113.086 64.7C112.824 64.812 112.596 64.966 112.4 65.162C112.213 65.358 112.064 65.5913 111.952 65.862C111.849 66.1233 111.798 66.4127 111.798 66.73V66.828H115.942V66.674C115.942 66.3567 115.89 66.0673 115.788 65.806C115.694 65.5447 115.559 65.3207 115.382 65.134C115.214 64.938 115.004 64.7887 114.752 64.686C114.509 64.5833 114.238 64.532 113.94 64.532Z" fill="#EB5A35"/>
<path d="M1 57H48.5" stroke="#EB5A35" stroke-linecap="round" stroke-linejoin="round"/>
<path d="M39.5 50L48.5 57L39.5 64" stroke="#EB5A35" stroke-linecap="round" stroke-linejoin="round"/>
</svg>
