<svg width="125" height="25" viewBox="0 0 125 25" fill="none" xmlns="http://www.w3.org/2000/svg">
<path d="M18.8949 19.558C18.732 19.7648 18.5602 19.9666 18.3713 20.1573C15.032 23.529 8.94185 22.848 4.76819 18.6349C0.595524 14.4218 -0.079936 8.2727 3.26039 4.90002C6.59972 1.52835 12.6898 2.20934 16.8625 6.42242C17.509 7.07516 18.0675 7.77431 18.5432 8.50272L21.0252 8.41394C19.5514 3.54812 15.5386 0.0563966 10.8153 0.0563966C4.84213 0.0553877 0 5.63953 0 12.5281C0 19.4168 4.84213 24.9999 10.8163 24.9999C14.3355 24.9999 17.46 23.0598 19.4345 20.0584L18.8949 19.558Z" fill="#030406"/>
<path d="M44.2546 0.0544434V24.9192H41.6267V13.3636H27.537V24.9192H24.9091V0.0544434H27.537V11.6697H41.6267V0.0544434H44.2546Z" fill="#030406"/>
<path d="M48.8579 24.9192V0.0544434H51.4858V24.9192H48.8579Z" fill="#030406"/>
<path d="M71.4539 16.362H59.6783L56.2251 24.9193H53.9958L64.0328 0.0534668H67.4321L77.57 24.9193H74.9421L71.4539 16.362ZM70.7624 14.6681L65.5356 1.84927L60.3608 14.6681H70.7624Z" fill="#030406"/>
<path d="M96.5957 18.3201C96.6097 19.4047 96.3569 24.7537 88.9378 24.9656H88.4902C82.5059 24.9656 79.4014 21.4698 78.4612 18.0941H81.4158C82.0283 19.7063 83.7889 23.5774 88.7589 23.5774H88.9988C92.46 23.4725 94.1916 22.4787 94.1326 19.8718C94.0727 17.2194 92.476 15.6819 87.5209 13.5582C87.402 13.5118 87.2971 13.4684 87.1922 13.422C87.0433 13.3615 86.8795 13.2868 86.7146 13.2414C82.491 11.5697 79.2665 10.0181 79.1776 6.58182C79.1616 5.94925 79.2506 3.74889 80.8932 2.0459C82.1772 0.734363 84.0877 0.0563965 86.5657 0.0563965C94.8031 0.0563965 96.5197 5.73739 96.8485 7.44037H94.1316C93.5941 5.48012 91.8015 1.63933 86.3249 1.63933C83.638 1.63933 81.4588 2.9317 81.4588 4.99687C81.4588 7.46761 83.0555 9.14033 87.1163 10.9341L87.1302 10.9493L87.1902 10.9634C87.5929 11.1298 87.9966 11.2802 88.4132 11.4456C92.4 12.968 96.5047 14.5509 96.5957 18.3201Z" fill="#030406"/>
<path d="M125 24.9193H121.805L119.895 1.72014L113.165 24.9193H110.773L103.877 1.72014L102.129 24.9193H99.1196L102.713 0H105.295L112.059 22.4586L118.892 0H121.41L125 24.9193Z" fill="#030406"/>
</svg>
